<svg width="16" height="16" viewBox="0 0 16 16" fill="none" xmlns="http://www.w3.org/2000/svg">
<path fill-rule="evenodd" clip-rule="evenodd" d="M9.59961 1.26855L6.39961 4.46855V14.7313L9.59961 11.5313V1.26855Z" fill="#6B7280"/>
<path fill-rule="evenodd" clip-rule="evenodd" d="M2.96529 2.63424C2.7365 2.40544 2.3924 2.337 2.09346 2.46082C1.79452 2.58465 1.59961 2.87636 1.59961 3.19993V11.1999C1.59961 11.4121 1.68389 11.6156 1.83392 11.7656L4.79961 14.7313V4.46855L2.96529 2.63424Z" fill="#6B7280"/>
<path fill-rule="evenodd" clip-rule="evenodd" d="M14.1653 4.23424L11.1996 1.26855V11.5313L13.0339 13.3656C13.2627 13.5944 13.6068 13.6629 13.9058 13.539C14.2047 13.4152 14.3996 13.1235 14.3996 12.7999V4.79993C14.3996 4.58775 14.3153 4.38427 14.1653 4.23424Z" fill="#6B7280"/>
</svg>
