<svg width="16" height="16" viewBox="0 0 16 16" fill="none" xmlns="http://www.w3.org/2000/svg">
<path d="M7.1998 4.7999C7.1998 6.12539 6.12529 7.1999 4.7998 7.1999C3.47432 7.1999 2.3998 6.12539 2.3998 4.7999C2.3998 3.47442 3.47432 2.3999 4.7998 2.3999C6.12529 2.3999 7.1998 3.47442 7.1998 4.7999Z" fill="#D1D5DB"/>
<path d="M13.5998 4.7999C13.5998 6.12539 12.5253 7.1999 11.1998 7.1999C9.87432 7.1999 8.7998 6.12539 8.7998 4.7999C8.7998 3.47442 9.87432 2.3999 11.1998 2.3999C12.5253 2.3999 13.5998 3.47442 13.5998 4.7999Z" fill="#D1D5DB"/>
<path d="M10.3431 13.5999C10.3805 13.3386 10.3998 13.0715 10.3998 12.7999C10.3998 11.4918 9.95128 10.2884 9.19961 9.33516C9.788 8.99474 10.4712 8.7999 11.1998 8.7999C13.409 8.7999 15.1998 10.5908 15.1998 12.7999V13.5999H10.3431Z" fill="#D1D5DB"/>
<path d="M4.7998 8.7999C7.00894 8.7999 8.7998 10.5908 8.7998 12.7999V13.5999H0.799805V12.7999C0.799805 10.5908 2.59067 8.7999 4.7998 8.7999Z" fill="#D1D5DB"/>
</svg>
