<svg width="24" height="24" viewBox="0 0 24 24" fill="none" xmlns="http://www.w3.org/2000/svg">
<path fill-rule="evenodd" clip-rule="evenodd" d="M11.9999 21.5999C17.3018 21.5999 21.5999 17.3018 21.5999 11.9999C21.5999 6.69797 17.3018 2.3999 11.9999 2.3999C6.69797 2.3999 2.3999 6.69797 2.3999 11.9999C2.3999 17.3018 6.69797 21.5999 11.9999 21.5999ZM10.4484 8.75137C9.9798 8.28275 9.22 8.28275 8.75137 8.75137C8.28275 9.22 8.28275 9.9798 8.75137 10.4484L10.3028 11.9999L8.75137 13.5514C8.28275 14.02 8.28275 14.7798 8.75137 15.2484C9.22 15.7171 9.9798 15.7171 10.4484 15.2484L11.9999 13.697L13.5514 15.2484C14.02 15.7171 14.7798 15.7171 15.2484 15.2484C15.7171 14.7798 15.7171 14.02 15.2484 13.5514L13.697 11.9999L15.2484 10.4484C15.7171 9.9798 15.7171 9.22 15.2484 8.75137C14.7798 8.28275 14.02 8.28275 13.5514 8.75137L11.9999 10.3028L10.4484 8.75137Z" fill="#D1D5DB"/>
</svg>
