<svg width="12" height="11" viewBox="0 0 12 11" fill="none" xmlns="http://www.w3.org/2000/svg">
<path d="M4.74395 0.715516C5.05394 -0.23853 6.40366 -0.238529 6.71365 0.715518L7.35624 2.69321C7.49487 3.11987 7.89247 3.40874 8.34109 3.40874H10.4206C11.4237 3.40874 11.8408 4.69241 11.0292 5.28204L9.3469 6.50432C8.98396 6.76801 8.83209 7.23542 8.97072 7.66208L9.61331 9.63977C9.9233 10.5938 8.83135 11.3872 8.01979 10.7975L6.33747 9.57525C5.97453 9.31156 5.48307 9.31156 5.12013 9.57525L3.4378 10.7975C2.62624 11.3872 1.5343 10.5938 1.84428 9.63977L2.48687 7.66208C2.62551 7.23542 2.47364 6.76801 2.1107 6.50432L0.42837 5.28204C-0.383191 4.6924 0.0338978 3.40874 1.03704 3.40874H3.11651C3.56513 3.40874 3.96273 3.11987 4.10136 2.69321L4.74395 0.715516Z" fill="#111827"/>
</svg>
