<svg width="12" height="11" viewBox="0 0 12 11" fill="none" xmlns="http://www.w3.org/2000/svg">
<path d="M4.74445 0.715516C5.05444 -0.23853 6.40416 -0.238529 6.71415 0.715518L7.35674 2.69321C7.49538 3.11987 7.89297 3.40874 8.34159 3.40874H10.4211C11.4242 3.40874 11.8413 4.69241 11.0297 5.28204L9.34741 6.50432C8.98446 6.76801 8.8326 7.23542 8.97123 7.66208L9.61382 9.63977C9.92381 10.5938 8.83186 11.3872 8.0203 10.7975L6.33797 9.57525C5.97503 9.31156 5.48357 9.31156 5.12063 9.57525L3.43831 10.7975C2.62675 11.3872 1.5348 10.5938 1.84479 9.63977L2.48738 7.66208C2.62601 7.23542 2.47414 6.76801 2.1112 6.50432L0.428875 5.28204C-0.382685 4.6924 0.0344034 3.40874 1.03755 3.40874H3.11701C3.56563 3.40874 3.96323 3.11987 4.10186 2.69321L4.74445 0.715516Z" fill="#111827"/>
</svg>
