<svg width="12" height="11" viewBox="0 0 12 11" fill="none" xmlns="http://www.w3.org/2000/svg">
<path d="M4.74496 0.715516C5.05495 -0.23853 6.40467 -0.238529 6.71466 0.715518L7.35725 2.69321C7.49588 3.11987 7.89348 3.40874 8.3421 3.40874H10.4216C11.4247 3.40874 11.8418 4.69241 11.0302 5.28204L9.34791 6.50432C8.98497 6.76801 8.8331 7.23542 8.97173 7.66208L9.61432 9.63977C9.92431 10.5938 8.83236 11.3872 8.0208 10.7975L6.33848 9.57525C5.97554 9.31156 5.48408 9.31156 5.12114 9.57525L3.43881 10.7975C2.62725 11.3872 1.53531 10.5938 1.8453 9.63977L2.48789 7.66208C2.62652 7.23542 2.47465 6.76801 2.11171 6.50432L0.429381 5.28204C-0.382179 4.6924 0.034909 3.40874 1.03805 3.40874H3.11752C3.56614 3.40874 3.96374 3.11987 4.10237 2.69321L4.74496 0.715516Z" fill="#111827"/>
</svg>
