<svg width="32" height="32" viewBox="0 0 32 32" fill="none" xmlns="http://www.w3.org/2000/svg">
<path fill-rule="evenodd" clip-rule="evenodd" d="M9.59996 3.2002C8.7163 3.2002 7.99996 3.91654 7.99996 4.8002V6.4002H6.39996C4.63264 6.4002 3.19995 7.83288 3.19995 9.60019V25.6002C3.19995 27.3675 4.63264 28.8002 6.39996 28.8002H25.6C27.3673 28.8002 28.8 27.3675 28.8 25.6002V9.60019C28.8 7.83288 27.3673 6.4002 25.6 6.4002H24V4.8002C24 3.91654 23.2836 3.2002 22.4 3.2002C21.5163 3.2002 20.8 3.91654 20.8 4.8002V6.4002H11.2V4.8002C11.2 3.91654 10.4836 3.2002 9.59996 3.2002ZM9.59996 11.2002C8.7163 11.2002 7.99996 11.9165 7.99996 12.8002C7.99996 13.6839 8.7163 14.4002 9.59996 14.4002H22.4C23.2836 14.4002 24 13.6839 24 12.8002C24 11.9165 23.2836 11.2002 22.4 11.2002H9.59996Z" fill="#4B5563"/>
</svg>
