<svg width="16" height="16" viewBox="0 0 16 16" fill="none" xmlns="http://www.w3.org/2000/svg">
<path fill-rule="evenodd" clip-rule="evenodd" d="M14.4001 8.0001C14.4001 11.5347 11.5347 14.4001 8.00008 14.4001C4.46547 14.4001 1.6001 11.5347 1.6001 8.0001C1.6001 4.46548 4.46547 1.6001 8.00008 1.6001C11.5347 1.6001 14.4001 4.46548 14.4001 8.0001ZM9.60008 5.6001C9.60008 6.48375 8.88374 7.2001 8.00008 7.2001C7.11643 7.2001 6.40009 6.48375 6.40009 5.6001C6.40009 4.71644 7.11643 4.0001 8.00008 4.0001C8.88374 4.0001 9.60008 4.71644 9.60008 5.6001ZM8.00003 8.8001C6.386 8.8001 4.99525 9.75606 4.36308 11.1327C5.24331 12.1537 6.54621 12.8001 8.00007 12.8001C9.4539 12.8001 10.7568 12.1538 11.637 11.1327C11.0049 9.75609 9.61408 8.8001 8.00003 8.8001Z" fill="#6B7280"/>
</svg>
