<svg width="16" height="16" viewBox="0 0 16 16" fill="none" xmlns="http://www.w3.org/2000/svg">
<path fill-rule="evenodd" clip-rule="evenodd" d="M4.79961 1.6001C4.35778 1.6001 3.99961 1.95827 3.99961 2.4001V3.2001H3.19961C2.31595 3.2001 1.59961 3.91644 1.59961 4.8001V12.8001C1.59961 13.6838 2.31595 14.4001 3.19961 14.4001H12.7996C13.6833 14.4001 14.3996 13.6838 14.3996 12.8001V4.8001C14.3996 3.91644 13.6833 3.2001 12.7996 3.2001H11.9996V2.4001C11.9996 1.95827 11.6414 1.6001 11.1996 1.6001C10.7578 1.6001 10.3996 1.95827 10.3996 2.4001V3.2001H5.59961V2.4001C5.59961 1.95827 5.24144 1.6001 4.79961 1.6001ZM4.79961 5.6001C4.35778 5.6001 3.99961 5.95827 3.99961 6.4001C3.99961 6.84193 4.35778 7.2001 4.79961 7.2001H11.1996C11.6414 7.2001 11.9996 6.84193 11.9996 6.4001C11.9996 5.95827 11.6414 5.6001 11.1996 5.6001H4.79961Z" fill="#111827"/>
</svg>
